<?xml version="1.0" encoding="UTF-8" standalone="no"?>
<!DOCTYPE svg PUBLIC "-//W3C//DTD SVG 1.1//EN" "http://www.w3.org/Graphics/SVG/1.1/DTD/svg11.dtd">
<svg width="100%" height="100%" viewBox="0 0 997 412" version="1.1" xmlns="http://www.w3.org/2000/svg" xmlns:xlink="http://www.w3.org/1999/xlink" xml:space="preserve" xmlns:serif="http://www.serif.com/" style="fill-rule:evenodd;clip-rule:evenodd;stroke-linejoin:round;stroke-miterlimit:2;">
    <g transform="matrix(1,0,0,1,-502.891,-4246.96)">
        <g transform="matrix(0.732064,0,0,2.27343,0,2.31664)">
            <g transform="matrix(1.366,0,0,0.439865,-410.663,1732.66)">
                <path d="M942.052,340.399L942.016,323.695L933.736,337.519L931.648,337.519L923.368,323.911L923.368,340.399L918.904,340.399L918.904,315.199L922.756,315.199L932.764,331.903L942.592,315.199L946.444,315.199L946.48,340.399L942.052,340.399Z" style="fill:rgb(229,231,235);fill-rule:nonzero;"/>
                <path d="M961.132,340.651C959.188,340.651 957.436,340.231 955.876,339.391C954.316,338.551 953.098,337.381 952.222,335.881C951.346,334.381 950.908,332.683 950.908,330.787C950.908,328.891 951.346,327.199 952.222,325.711C953.098,324.223 954.316,323.059 955.876,322.219C957.436,321.379 959.188,320.959 961.132,320.959C963.1,320.959 964.864,321.379 966.424,322.219C967.984,323.059 969.202,324.223 970.078,325.711C970.954,327.199 971.392,328.891 971.392,330.787C971.392,332.683 970.954,334.381 970.078,335.881C969.202,337.381 967.984,338.551 966.424,339.391C964.864,340.231 963.1,340.651 961.132,340.651ZM961.132,336.799C962.788,336.799 964.156,336.247 965.236,335.143C966.316,334.039 966.856,332.587 966.856,330.787C966.856,328.987 966.316,327.535 965.236,326.431C964.156,325.327 962.788,324.775 961.132,324.775C959.476,324.775 958.114,325.327 957.046,326.431C955.978,327.535 955.444,328.987 955.444,330.787C955.444,332.587 955.978,334.039 957.046,335.143C958.114,336.247 959.476,336.799 961.132,336.799Z" style="fill:rgb(229,231,235);fill-rule:nonzero;"/>
                <path d="M979.636,323.983C980.932,321.967 983.212,320.959 986.476,320.959L986.476,325.243C986.092,325.171 985.744,325.135 985.432,325.135C983.68,325.135 982.312,325.645 981.328,326.665C980.344,327.685 979.852,329.155 979.852,331.075L979.852,340.399L975.352,340.399L975.352,321.175L979.636,321.175L979.636,323.983Z" style="fill:rgb(229,231,235);fill-rule:nonzero;"/>
                <path d="M1007.82,330.895C1007.82,331.207 1007.8,331.651 1007.75,332.227L992.668,332.227C992.932,333.643 993.622,334.765 994.738,335.593C995.854,336.421 997.24,336.835 998.896,336.835C1001.01,336.835 1002.75,336.139 1004.12,334.747L1006.53,337.519C1005.66,338.551 1004.57,339.331 1003.25,339.859C1001.93,340.387 1000.44,340.651 998.788,340.651C996.676,340.651 994.816,340.231 993.208,339.391C991.6,338.551 990.358,337.381 989.482,335.881C988.606,334.381 988.168,332.683 988.168,330.787C988.168,328.915 988.594,327.229 989.446,325.729C990.298,324.229 991.48,323.059 992.992,322.219C994.504,321.379 996.208,320.959 998.104,320.959C999.976,320.959 1001.65,321.373 1003.13,322.201C1004.6,323.029 1005.75,324.193 1006.58,325.693C1007.41,327.193 1007.82,328.927 1007.82,330.895ZM998.104,324.559C996.664,324.559 995.446,324.985 994.45,325.837C993.454,326.689 992.848,327.823 992.632,329.239L1003.54,329.239C1003.35,327.847 1002.76,326.719 1001.78,325.855C1000.79,324.991 999.568,324.559 998.104,324.559Z" style="fill:rgb(229,231,235);fill-rule:nonzero;"/>
                <path d="M1030.18,340.651C1028.19,340.651 1026.4,340.231 1024.82,339.391C1023.23,338.551 1022,337.381 1021.11,335.881C1020.22,334.381 1019.78,332.683 1019.78,330.787C1019.78,328.891 1020.22,327.199 1021.11,325.711C1022,324.223 1023.23,323.059 1024.8,322.219C1026.37,321.379 1028.16,320.959 1030.18,320.959C1032.08,320.959 1033.74,321.343 1035.17,322.111C1036.59,322.879 1037.67,323.983 1038.39,325.423L1034.93,327.439C1034.38,326.551 1033.69,325.885 1032.86,325.441C1032.03,324.997 1031.13,324.775 1030.14,324.775C1028.46,324.775 1027.07,325.321 1025.97,326.413C1024.86,327.505 1024.31,328.963 1024.31,330.787C1024.31,332.611 1024.86,334.069 1025.95,335.161C1027.04,336.253 1028.44,336.799 1030.14,336.799C1031.13,336.799 1032.03,336.577 1032.86,336.133C1033.69,335.689 1034.38,335.023 1034.93,334.135L1038.39,336.151C1037.64,337.591 1036.56,338.701 1035.13,339.481C1033.7,340.261 1032.05,340.651 1030.18,340.651Z" style="fill:rgb(229,231,235);fill-rule:nonzero;"/>
                <path d="M1050.27,340.651C1048.32,340.651 1046.57,340.231 1045.01,339.391C1043.45,338.551 1042.23,337.381 1041.36,335.881C1040.48,334.381 1040.04,332.683 1040.04,330.787C1040.04,328.891 1040.48,327.199 1041.36,325.711C1042.23,324.223 1043.45,323.059 1045.01,322.219C1046.57,321.379 1048.32,320.959 1050.27,320.959C1052.24,320.959 1054,321.379 1055.56,322.219C1057.12,323.059 1058.34,324.223 1059.21,325.711C1060.09,327.199 1060.53,328.891 1060.53,330.787C1060.53,332.683 1060.09,334.381 1059.21,335.881C1058.34,337.381 1057.12,338.551 1055.56,339.391C1054,340.231 1052.24,340.651 1050.27,340.651ZM1050.27,336.799C1051.92,336.799 1053.29,336.247 1054.37,335.143C1055.45,334.039 1055.99,332.587 1055.99,330.787C1055.99,328.987 1055.45,327.535 1054.37,326.431C1053.29,325.327 1051.92,324.775 1050.27,324.775C1048.61,324.775 1047.25,325.327 1046.18,326.431C1045.11,327.535 1044.58,328.987 1044.58,330.787C1044.58,332.587 1045.11,334.039 1046.18,335.143C1047.25,336.247 1048.61,336.799 1050.27,336.799Z" style="fill:rgb(229,231,235);fill-rule:nonzero;"/>
                <path d="M1088.75,320.959C1091.18,320.959 1093.1,321.661 1094.51,323.065C1095.93,324.469 1096.64,326.575 1096.64,329.383L1096.64,340.399L1092.14,340.399L1092.14,329.959C1092.14,328.279 1091.76,327.013 1091.02,326.161C1090.28,325.309 1089.21,324.883 1087.82,324.883C1086.3,324.883 1085.09,325.381 1084.18,326.377C1083.27,327.373 1082.81,328.795 1082.81,330.643L1082.81,340.399L1078.31,340.399L1078.31,329.959C1078.31,328.279 1077.94,327.013 1077.2,326.161C1076.45,325.309 1075.38,324.883 1073.99,324.883C1072.46,324.883 1071.24,325.375 1070.34,326.359C1069.44,327.343 1068.99,328.771 1068.99,330.643L1068.99,340.399L1064.49,340.399L1064.49,321.175L1068.77,321.175L1068.77,323.623C1069.49,322.759 1070.39,322.099 1071.47,321.643C1072.55,321.187 1073.75,320.959 1075.07,320.959C1076.51,320.959 1077.79,321.229 1078.91,321.769C1080.02,322.309 1080.9,323.107 1081.55,324.163C1082.34,323.155 1083.36,322.369 1084.61,321.805C1085.86,321.241 1087.24,320.959 1088.75,320.959Z" style="fill:rgb(229,231,235);fill-rule:nonzero;"/>
                <path d="M1126.3,320.959C1128.72,320.959 1130.64,321.661 1132.06,323.065C1133.48,324.469 1134.18,326.575 1134.18,329.383L1134.18,340.399L1129.68,340.399L1129.68,329.959C1129.68,328.279 1129.31,327.013 1128.57,326.161C1127.82,325.309 1126.76,324.883 1125.36,324.883C1123.85,324.883 1122.64,325.381 1121.73,326.377C1120.82,327.373 1120.36,328.795 1120.36,330.643L1120.36,340.399L1115.86,340.399L1115.86,329.959C1115.86,328.279 1115.49,327.013 1114.74,326.161C1114,325.309 1112.93,324.883 1111.54,324.883C1110,324.883 1108.79,325.375 1107.89,326.359C1106.99,327.343 1106.54,328.771 1106.54,330.643L1106.54,340.399L1102.04,340.399L1102.04,321.175L1106.32,321.175L1106.32,323.623C1107.04,322.759 1107.94,322.099 1109.02,321.643C1110.1,321.187 1111.3,320.959 1112.62,320.959C1114.06,320.959 1115.34,321.229 1116.45,321.769C1117.57,322.309 1118.45,323.107 1119.1,324.163C1119.89,323.155 1120.91,322.369 1122.16,321.805C1123.41,321.241 1124.79,320.959 1126.3,320.959Z" style="fill:rgb(229,231,235);fill-rule:nonzero;"/>
                <path d="M1139.58,321.175L1144.08,321.175L1144.08,340.399L1139.58,340.399L1139.58,321.175ZM1141.85,318.007C1141.04,318.007 1140.35,317.749 1139.8,317.233C1139.25,316.717 1138.97,316.075 1138.97,315.307C1138.97,314.539 1139.25,313.897 1139.8,313.381C1140.35,312.865 1141.04,312.607 1141.85,312.607C1142.67,312.607 1143.35,312.853 1143.9,313.345C1144.46,313.837 1144.73,314.455 1144.73,315.199C1144.73,315.991 1144.46,316.657 1143.92,317.197C1143.38,317.737 1142.69,318.007 1141.85,318.007Z" style="fill:rgb(229,231,235);fill-rule:nonzero;"/>
                <path d="M1160.54,320.959C1162.96,320.959 1164.9,321.667 1166.37,323.083C1167.83,324.499 1168.56,326.599 1168.56,329.383L1168.56,340.399L1164.06,340.399L1164.06,329.959C1164.06,328.279 1163.67,327.013 1162.88,326.161C1162.08,325.309 1160.96,324.883 1159.49,324.883C1157.84,324.883 1156.53,325.381 1155.57,326.377C1154.61,327.373 1154.13,328.807 1154.13,330.679L1154.13,340.399L1149.63,340.399L1149.63,321.175L1153.91,321.175L1153.91,323.659C1154.66,322.771 1155.59,322.099 1156.72,321.643C1157.85,321.187 1159.12,320.959 1160.54,320.959Z" style="fill:rgb(229,231,235);fill-rule:nonzero;"/>
                <path d="M1193.19,321.175L1193.19,337.483C1193.19,344.251 1189.73,347.635 1182.82,347.635C1180.97,347.635 1179.22,347.401 1177.56,346.933C1175.91,346.465 1174.54,345.787 1173.46,344.899L1175.48,341.515C1176.32,342.211 1177.38,342.769 1178.66,343.189C1179.95,343.609 1181.25,343.819 1182.57,343.819C1184.68,343.819 1186.23,343.339 1187.21,342.379C1188.2,341.419 1188.69,339.955 1188.69,337.987L1188.69,336.979C1187.92,337.819 1186.98,338.455 1185.88,338.887C1184.78,339.319 1183.56,339.535 1182.24,339.535C1180.42,339.535 1178.77,339.145 1177.29,338.365C1175.82,337.585 1174.65,336.487 1173.8,335.071C1172.95,333.655 1172.52,332.035 1172.52,330.211C1172.52,328.387 1172.95,326.773 1173.8,325.369C1174.65,323.965 1175.82,322.879 1177.29,322.111C1178.77,321.343 1180.42,320.959 1182.24,320.959C1183.64,320.959 1184.9,321.187 1186.04,321.643C1187.18,322.099 1188.14,322.795 1188.9,323.731L1188.9,321.175L1193.19,321.175ZM1182.93,335.719C1184.63,335.719 1186.03,335.209 1187.12,334.189C1188.21,333.169 1188.76,331.843 1188.76,330.211C1188.76,328.603 1188.21,327.295 1187.12,326.287C1186.03,325.279 1184.63,324.775 1182.93,324.775C1181.2,324.775 1179.79,325.279 1178.7,326.287C1177.61,327.295 1177.06,328.603 1177.06,330.211C1177.06,331.843 1177.61,333.169 1178.7,334.189C1179.79,335.209 1181.2,335.719 1182.93,335.719Z" style="fill:rgb(229,231,235);fill-rule:nonzero;"/>
                <path d="M1214.25,340.651C1212.69,340.651 1211.16,340.447 1209.68,340.039C1208.19,339.631 1207,339.115 1206.11,338.491L1207.84,335.071C1208.7,335.647 1209.74,336.109 1210.95,336.457C1212.17,336.805 1213.36,336.979 1214.54,336.979C1217.22,336.979 1218.57,336.271 1218.57,334.855C1218.57,334.183 1218.23,333.715 1217.54,333.451C1216.86,333.187 1215.76,332.935 1214.25,332.695C1212.66,332.455 1211.37,332.179 1210.38,331.867C1209.38,331.555 1208.52,331.009 1207.79,330.229C1207.05,329.449 1206.69,328.363 1206.69,326.971C1206.69,325.147 1207.45,323.689 1208.97,322.597C1210.5,321.505 1212.56,320.959 1215.15,320.959C1216.47,320.959 1217.79,321.109 1219.11,321.409C1220.43,321.709 1221.51,322.111 1222.35,322.615L1220.62,326.035C1218.99,325.075 1217.15,324.595 1215.11,324.595C1213.79,324.595 1212.79,324.793 1212.11,325.189C1211.42,325.585 1211.08,326.107 1211.08,326.755C1211.08,327.475 1211.45,327.985 1212.18,328.285C1212.91,328.585 1214.04,328.867 1215.58,329.131C1217.12,329.371 1218.38,329.647 1219.36,329.959C1220.34,330.271 1221.19,330.799 1221.9,331.543C1222.61,332.287 1222.96,333.343 1222.96,334.711C1222.96,336.511 1222.18,337.951 1220.62,339.031C1219.06,340.111 1216.94,340.651 1214.25,340.651Z" style="fill:rgb(229,231,235);fill-rule:nonzero;"/>
                <path d="M1235.13,340.651C1233.18,340.651 1231.43,340.231 1229.87,339.391C1228.31,338.551 1227.09,337.381 1226.22,335.881C1225.34,334.381 1224.9,332.683 1224.9,330.787C1224.9,328.891 1225.34,327.199 1226.22,325.711C1227.09,324.223 1228.31,323.059 1229.87,322.219C1231.43,321.379 1233.18,320.959 1235.13,320.959C1237.1,320.959 1238.86,321.379 1240.42,322.219C1241.98,323.059 1243.2,324.223 1244.07,325.711C1244.95,327.199 1245.39,328.891 1245.39,330.787C1245.39,332.683 1244.95,334.381 1244.07,335.881C1243.2,337.381 1241.98,338.551 1240.42,339.391C1238.86,340.231 1237.1,340.651 1235.13,340.651ZM1235.13,336.799C1236.78,336.799 1238.15,336.247 1239.23,335.143C1240.31,334.039 1240.85,332.587 1240.85,330.787C1240.85,328.987 1240.31,327.535 1239.23,326.431C1238.15,325.327 1236.78,324.775 1235.13,324.775C1233.47,324.775 1232.11,325.327 1231.04,326.431C1229.97,327.535 1229.44,328.987 1229.44,330.787C1229.44,332.587 1229.97,334.039 1231.04,335.143C1232.11,336.247 1233.47,336.799 1235.13,336.799Z" style="fill:rgb(229,231,235);fill-rule:nonzero;"/>
                <path d="M1257.99,340.651C1256.04,340.651 1254.29,340.231 1252.73,339.391C1251.17,338.551 1249.95,337.381 1249.08,335.881C1248.2,334.381 1247.76,332.683 1247.76,330.787C1247.76,328.891 1248.2,327.199 1249.08,325.711C1249.95,324.223 1251.17,323.059 1252.73,322.219C1254.29,321.379 1256.04,320.959 1257.99,320.959C1259.96,320.959 1261.72,321.379 1263.28,322.219C1264.84,323.059 1266.06,324.223 1266.93,325.711C1267.81,327.199 1268.25,328.891 1268.25,330.787C1268.25,332.683 1267.81,334.381 1266.93,335.881C1266.06,337.381 1264.84,338.551 1263.28,339.391C1261.72,340.231 1259.96,340.651 1257.99,340.651ZM1257.99,336.799C1259.64,336.799 1261.01,336.247 1262.09,335.143C1263.17,334.039 1263.71,332.587 1263.71,330.787C1263.71,328.987 1263.17,327.535 1262.09,326.431C1261.01,325.327 1259.64,324.775 1257.99,324.775C1256.33,324.775 1254.97,325.327 1253.9,326.431C1252.83,327.535 1252.3,328.987 1252.3,330.787C1252.3,332.587 1252.83,334.039 1253.9,335.143C1254.97,336.247 1256.33,336.799 1257.99,336.799Z" style="fill:rgb(229,231,235);fill-rule:nonzero;"/>
                <path d="M1283.12,320.959C1285.54,320.959 1287.48,321.667 1288.95,323.083C1290.41,324.499 1291.14,326.599 1291.14,329.383L1291.14,340.399L1286.64,340.399L1286.64,329.959C1286.64,328.279 1286.25,327.013 1285.46,326.161C1284.66,325.309 1283.54,324.883 1282.07,324.883C1280.42,324.883 1279.11,325.381 1278.15,326.377C1277.19,327.373 1276.71,328.807 1276.71,330.679L1276.71,340.399L1272.21,340.399L1272.21,321.175L1276.49,321.175L1276.49,323.659C1277.24,322.771 1278.17,322.099 1279.3,321.643C1280.43,321.187 1281.7,320.959 1283.12,320.959Z" style="fill:rgb(229,231,235);fill-rule:nonzero;"/>
                <path d="M1307.52,340.651C1306.71,340.651 1306.01,340.369 1305.44,339.805C1304.86,339.241 1304.57,338.527 1304.57,337.663C1304.57,336.775 1304.85,336.055 1305.42,335.503C1305.98,334.951 1306.68,334.675 1307.52,334.675C1308.36,334.675 1309.07,334.951 1309.63,335.503C1310.19,336.055 1310.48,336.775 1310.48,337.663C1310.48,338.527 1310.19,339.241 1309.61,339.805C1309.04,340.369 1308.34,340.651 1307.52,340.651Z" style="fill:rgb(229,231,235);fill-rule:nonzero;"/>
                <path d="M1315.95,340.651C1315.13,340.651 1314.44,340.369 1313.86,339.805C1313.28,339.241 1313,338.527 1313,337.663C1313,336.775 1313.28,336.055 1313.84,335.503C1314.41,334.951 1315.11,334.675 1315.95,334.675C1316.79,334.675 1317.49,334.951 1318.05,335.503C1318.62,336.055 1318.9,336.775 1318.9,337.663C1318.9,338.527 1318.61,339.241 1318.04,339.805C1317.46,340.369 1316.76,340.651 1315.95,340.651Z" style="fill:rgb(229,231,235);fill-rule:nonzero;"/>
                <path d="M1324.37,340.651C1323.56,340.651 1322.86,340.369 1322.28,339.805C1321.71,339.241 1321.42,338.527 1321.42,337.663C1321.42,336.775 1321.7,336.055 1322.27,335.503C1322.83,334.951 1323.53,334.675 1324.37,334.675C1325.21,334.675 1325.91,334.951 1326.48,335.503C1327.04,336.055 1327.32,336.775 1327.32,337.663C1327.32,338.527 1327.04,339.241 1326.46,339.805C1325.88,340.369 1325.19,340.651 1324.37,340.651Z" style="fill:rgb(229,231,235);fill-rule:nonzero;"/>
            </g>
            <g transform="matrix(1.366,0,0,0.439865,-188.492,-53.1962)">
                <path d="M1514.15,4464.29C1514.15,4460.89 1511.39,4458.13 1508,4458.13L647.038,4458.13C643.639,4458.13 640.88,4460.89 640.88,4464.29L640.88,4476.61C640.88,4480 643.639,4482.76 647.038,4482.76L1508,4482.76C1511.39,4482.76 1514.15,4480 1514.15,4476.61L1514.15,4464.29Z" style="fill:rgb(229,231,235);"/>
            </g>
            <g transform="matrix(1.40479,0,0,0.439865,-213.353,-35.1153)">
                <path d="M1514.15,4464.29C1514.15,4460.89 1511.47,4458.13 1508.16,4458.13L646.868,4458.13C643.563,4458.13 640.88,4460.89 640.88,4464.29L640.88,4476.61C640.88,4480 643.563,4482.76 646.868,4482.76L1508.16,4482.76C1511.47,4482.76 1514.15,4480 1514.15,4476.61L1514.15,4464.29Z" style="fill:rgb(229,231,235);"/>
            </g>
            <g transform="matrix(1.12149,0,0,0.439865,-31.7892,-17.0345)">
                <path d="M1514.15,4464.29C1514.15,4460.89 1510.79,4458.13 1506.65,4458.13L648.381,4458.13C644.241,4458.13 640.88,4460.89 640.88,4464.29L640.88,4476.61C640.88,4480 644.241,4482.76 648.381,4482.76L1506.65,4482.76C1510.79,4482.76 1514.15,4480 1514.15,4476.61L1514.15,4464.29Z" style="fill:rgb(229,231,235);"/>
            </g>
            <g transform="matrix(0.850806,0,0,0.655717,141.742,1287.04)">
                <path d="M761.161,886.109C761.161,885.259 759.51,884.569 757.475,884.569L644.498,884.569C642.464,884.569 640.812,885.259 640.812,886.109L640.812,916.514C640.812,917.364 642.464,918.054 644.498,918.054L757.475,918.054C759.51,918.054 761.161,917.364 761.161,916.514L761.161,886.109Z" style="fill:rgb(229,231,235);"/>
            </g>
            <g transform="matrix(1.366,0,0,0.439865,3163.57,159.202)">
                <path d="M-1811.05,4294.04L-816.079,4294.04L-816.079,4148.74C-816.079,4142.76 -820.932,4137.91 -826.91,4137.91L-1800.22,4137.91C-1806.19,4137.91 -1811.05,4142.76 -1811.05,4148.74L-1811.05,4294.04Z" style="fill:rgb(229,231,235);"/>
            </g>
        </g>
    </g>
</svg>
